Coordinates
version=1
nRows=22
nColumns=24
inDegrees=yes

Units are S.I. units (second, meters, Newtons, ...)
Angles are in degrees.

endheader
time	pelvis_tilt	pelvis_list	pelvis_rotation	pelvis_tx	pelvis_ty	pelvis_tz	hip_flexion_r	hip_adduction_r	hip_rotation_r	knee_angle_r	ankle_angle_r	subtalar_angle_r	mtp_angle_r	hip_flexion_l	hip_adduction_l	hip_rotation_l	knee_angle_l	ankle_angle_l	subtalar_angle_l	mtp_angle_l	lumbar_extension	lumbar_bending	lumbar_rotation
      4.92000000	     -8.85857583	      7.06270443	     -1.44323809	     -0.27271524	     -0.01845603	      0.59549753	     23.22637216	    -11.61498901	     -4.08119262	    -66.33178975	     -6.68309344	     -3.69299499	     11.32650389	     17.66881915	     10.73202059	     -5.93093152	    -17.82894721	      2.59173314	      3.56772263	     10.82329477	      9.12965506	     -9.66578159	     -0.63866276
      4.92500000	     -8.84589014	      6.75891063	     -1.03994537	     -0.26661860	     -0.01746175	      0.59488453	     23.88450155	    -11.34362290	     -4.44182256	    -66.01916129	     -6.34826386	     -3.21941174	     11.66986602	     16.90942518	     10.64711128	     -5.16975595	    -17.34041879	      2.69574387	      3.30710751	     10.45946414	      9.07904774	     -9.42216725	     -1.15791642
      4.93000000	     -8.83606223	      6.46295415	     -0.64126419	     -0.26058063	     -0.01655579	      0.59431655	     24.54375820	    -11.07084056	     -4.78329490	    -65.64858854	     -6.05149340	     -2.78611406	     11.96669417	     16.17073811	     10.54435497	     -4.45752801	    -16.87139780	      2.82289316	      3.11072350	     10.14265133	      9.02410187	     -9.18864080	     -1.69646810
      4.93500000	     -8.82416390	      6.17391648	     -0.24274773	     -0.25458296	     -0.01571990	      0.59377175	     25.19171497	    -10.80157770	     -5.11728426	    -65.21378154	     -5.79352882	     -2.42436309	     12.20656379	     15.44013758	     10.43070077	     -3.76720166	    -16.40930766	      2.95460913	      2.93660192	      9.85013531	      8.96282250	     -8.96750919	     -2.24492538
      4.94000000	     -8.81809303	      5.88623751	      0.15296194	     -0.24860453	     -0.01495566	      0.59323564	     25.83210174	    -10.52914516	     -5.44086525	    -64.71196266	     -5.56876992	     -2.13931572	     12.37013881	     14.72715488	     10.29872695	     -3.13702388	    -15.95633490	      3.09025119	      2.80570484	      9.60824275	      8.90899913	     -8.74487174	     -2.79192838
      4.94500000	     -8.79939723	      5.61545457	      0.55552565	     -0.24257683	     -0.01422683	      0.59268883	     26.43198013	    -10.29140331	     -5.79767001	    -64.13536578	     -5.37878013	     -1.98744199	     12.48261954	     13.98548075	     10.17710809	     -2.46790555	    -15.47634278	      3.20468815	      2.64089703	      9.31895365	      8.85272108	     -8.54100617	     -3.28659476
      4.95000000	     -8.78708179	      5.35262676	      0.93793375	     -0.23661773	     -0.01359064	      0.59219688	     27.03922143	    -10.04515772	     -6.11327917	    -63.50823663	     -5.22397786	     -1.91735229	     12.51438584	     13.27200036	     10.03727905	     -1.86908427	    -15.01707965	      3.34231074	      2.53563783	      9.08802438	      8.79557230	     -8.34508863	     -3.80642022
      4.95500000	     -8.79385240	      5.07826114	      1.29426259	     -0.23061166	     -0.01301136	      0.59172393	     27.64421696	     -9.78221992	     -6.42142995	    -62.80277513	     -5.09888586	     -1.92777182	     12.46488817	     12.58452660	      9.86188056	     -1.37035989	    -14.55716189	      3.46998267	      2.47561343	      8.91733181	      8.77727217	     -8.12559869	     -4.25232780
      4.96000000	     -8.77032116	      4.83622424	      1.68212359	     -0.22464093	     -0.01248966	      0.59123570	     28.19683569	     -9.57926498	     -6.77142758	    -62.04977966	     -5.00185286	     -2.08959814	     12.32920859	     11.86202951	      9.71670245	     -0.79764110	    -14.09018275	      3.60155119	      2.41461239	      8.73218703	      8.71444656	     -7.95247263	     -4.74406139
      4.96500000	     -8.74219185	      4.61314240	      2.04599566	     -0.21868078	     -0.01203443	      0.59077610	     28.73409557	     -9.39192180	     -7.09960433	    -61.24259578	     -4.92275995	     -2.33412429	     12.10812349	     11.13901130	      9.57364874	     -0.26858658	    -13.62031222	      3.72674029	      2.35464063	      8.54885771	      8.64937913	     -7.79185478	     -5.20266627
      4.97000000	     -8.68238090	      4.42770741	      2.40950354	     -0.21275482	     -0.01163780	      0.59033335	     29.22393485	     -9.25073589	     -7.42290764	    -60.39455744	     -4.84024994	     -2.64629141	     11.75359228	     10.38330179	      9.45914045	      0.27928795	    -13.14849012	      3.85267985	      2.27633872	      8.33363835	      8.54190006	     -7.67345449	     -5.68579262
      4.97500000	     -8.68132988	      4.20605283	      2.73856450	     -0.20676183	     -0.01133396	      0.58990833	     29.74898639	     -9.06684654	     -7.74782273	    -59.46145774	     -4.81275378	     -3.05360126	     11.36854442	      9.70680120	      9.28428505	      0.69284805	    -12.69468023	      3.98980775	      2.28194916	      8.21534486	      8.52462420	     -7.50470611	     -6.06538215
      4.98000000	     -8.63529589	      4.01797692	      3.08285842	     -0.20082685	     -0.01107262	      0.58948536	     30.20653650	     -8.93517268	     -8.09726089	    -58.48694392	     -4.78637559	     -3.54881386	     10.85854892	      8.98686411	      9.13601923	      1.13023038	    -12.24288318	      4.12290864	      2.29102899	      8.09341684	      8.44117747	     -7.37411761	     -6.50032642
      4.98500000	     -8.50464828	      3.86286831	      3.43279818	     -0.19488015	     -0.01081247	      0.58902552	     30.54270050	     -8.85961098	     -8.47034098	    -57.48299322	     -4.66924192	     -3.89408808	      9.94568024	      8.15634220	      9.01723879	      1.65942729	    -11.76429181	      4.25012725	      2.22127212	      7.87689686	      8.26097938	     -7.26954612	     -6.92664145
      4.99000000	     -8.53863100	      3.68762977	      3.70851820	     -0.18895832	     -0.01078406	      0.58870807	     31.06362935	     -8.71553278	     -8.76772233	    -56.39703982	     -4.71959712	     -4.57566769	      9.38876273	      7.55708303	      8.85068220	      1.93281945	    -11.35233993	      4.40743346	      2.29283034	      7.83620296	      8.28019869	     -7.13984695	     -7.27388277
      4.99500000	     -8.48983704	      3.52061995	      4.01958134	     -0.18304411	     -0.01073427	      0.58834606	     31.44980518	     -8.61458798	     -9.13782354	    -55.24883034	     -4.74395720	     -5.23974355	      8.70643008	      6.86573025	      8.68650363	      2.26255688	    -10.93691996	      4.56943482	      2.37326467	      7.79133775	      8.19710352	     -7.02310871	     -7.66118524
      5.00000000	     -8.29981800	      3.37400901	      4.33465189	     -0.17708919	     -0.01062565	      0.58793171	     31.64116397	     -8.55212230	     -9.54238960	    -54.08010972	     -4.59699411	     -5.58254441	      7.38312574	      5.99754712	      8.53258808	      2.68948354	    -10.48960594	      4.73606681	      2.38725041	      7.67180188	      7.96010499	     -6.90927535	     -8.05403576
      5.00500000	     -8.26440074	      3.23855736	      4.61014246	     -0.17119622	     -0.01074029	      0.58761863	     32.00660364	     -8.47674352	     -9.89487287	    -52.84914809	     -4.60856312	     -6.17741204	      6.36318403	      5.34005256	      8.38209503	      2.96109150	    -10.10036215	      4.91060237	      2.48256277	      7.62603916	      7.89036445	     -6.81464597	     -8.43860738
      5.01000000	     -8.19662394	      3.11154459	      4.87090679	     -0.16527892	     -0.01090023	      0.58730178	     32.30524437	     -8.41755913	    -10.27945861	    -51.55573113	     -4.59813338	     -6.75379739	      5.39660475	      4.64891051	      8.23134848	      3.22105579	     -9.71406200	      5.09383734	      2.57316969	      7.58664642	      7.79334764	     -6.71887908	     -8.75796653
      5.01500000	     -8.10838689	      2.99209303	      5.12818411	     -0.15937210	     -0.01113512	      0.58699619	     32.55417415	     -8.36987901	    -10.69088216	    -50.21499438	     -4.53609405	     -7.27799821	      4.35169598	      3.94933321	      8.08090258	      3.48473711	     -9.35437756	      5.31487748	      2.66120964	      7.54717315	      7.66967014	     -6.62714525	     -9.07121092
      5.02000000	     -8.15753787	      2.85616562	      5.34757588	     -0.15346473	     -0.01155279	      0.58674323	     32.93121139	     -8.28354444	    -11.04481898	    -48.77669098	     -4.57058864	     -7.88956602	      3.73549023	      3.43350875	      7.91687068	      3.68709504	     -9.04977314	      5.52527292	      2.73918208	      7.54146818	      7.70972011	     -6.51969654	     -9.31583822
      5.02500000	     -8.09520899	      2.71471032	      5.60766680	     -0.14756649	     -0.01191376	      0.58644790	     33.14250363	     -8.21842555	    -11.49046589	    -47.28720686	     -4.57893306	     -8.39607730	      2.98196713	      2.79561132	      7.73275361	      3.94335553	     -8.74209016	      5.76907035	      2.85468385	      7.52767197	      7.61557105	     -6.40331487	     -9.63642645
